<svg xmlns="http://www.w3.org/2000/svg" viewBox="0 0 64 64" role="img" aria-label="Lessdot geek icon">
  <rect width="64" height="64" rx="14" fill="#0b0f14" />
  <path d="M14 18h36a6 6 0 0 1 6 6v16a6 6 0 0 1-6 6H14a6 6 0 0 1-6-6V24a6 6 0 0 1 6-6Z" fill="#111827" stroke="#22d3ee" stroke-width="2" />
  <circle cx="24" cy="32" r="5" fill="#22d3ee" />
  <circle cx="40" cy="32" r="5" fill="#22d3ee" />
  <rect x="29" y="30.5" width="6" height="3" rx="1.5" fill="#22d3ee" />
  <path d="M21 43c3 3 6 4 11 4s8-1 11-4" fill="none" stroke="#a7f3d0" stroke-width="2.5" stroke-linecap="round" />
  <path d="M16 13h32" stroke="#a78bfa" stroke-width="3" stroke-linecap="round" />
  <path d="M20 11v4M44 11v4" stroke="#a78bfa" stroke-width="2" stroke-linecap="round" />
</svg>
